<svg version="1.1" xmlns="http://www.w3.org/2000/svg" xmlns:xlink="http://www.w3.org/1999/xlink" width="650.64865" height="372.87088" viewBox="0,0,650.64865,372.87088"><g transform="translate(8.92792,3.5826)"><g data-paper-data="{&quot;isPaintingLayer&quot;:true}" fill-rule="nonzero" stroke-linejoin="miter" stroke-miterlimit="10" stroke-dasharray="" stroke-dashoffset="0" style="mix-blend-mode: normal"><path d="M-7.92792,83.00299v-85.58559h648.64865v85.58559z" fill="#000000" stroke="#000000" stroke-width="2" stroke-linecap="butt"/><path d="M324.42023,184.74995l16.43458,-17.66216l45.8613,-0.10311l-9.67627,17.82811z" data-paper-data="{&quot;index&quot;:null}" fill="#cedce9" stroke="#000000" stroke-width="0.5" stroke-linecap="round"/><path d="M320.05908,183.81764c-1.58366,-0.25144 -5.35274,-0.64494 -3.7003,-1.04512c-0.90335,0.12778 -2.10849,0.28368 -2.74971,0.32523c-3.03761,0.19689 -6.9737,-0.00833 -10.10793,-0.01207c-8.59855,-0.01027 -16.94632,-0.12668 -25.27025,0.36793c-3.76182,0.22353 -4.79501,-0.48185 -5.95128,0.502c-2.38452,1.65025 -6.86895,3.12004 -9.75049,4.78079c-3.90545,2.25083 -5.42151,4.42646 -7.81676,6.68519c-2.70963,1.85924 -0.50853,5.43776 -0.51101,7.51076c-0.00066,0.55491 0.75763,1.54356 0.03177,1.95115c0.72108,0.0215 1.41752,0.04115 1.8611,0.04168c2.94816,0.00351 5.89626,0.00704 8.84443,0.01055c11.7273,0.014 25.35294,-0.05053 36.73663,-0.93356c13.51603,-0.94038 28.16196,0.44876 41.78658,-0.39349c7.46112,-0.42168 15.59335,-0.15602 23.18951,-0.1439c3.85355,0.00614 7.15405,-0.4511 8.84395,0.40867c0.44417,0.22599 0.00063,-0.53082 0.00095,-0.79623c0.0008,-0.66351 0.00159,-1.32704 0.00237,-1.99055c0.00444,-3.71571 0.00887,-7.4314 0.01331,-11.1471c0.00106,-0.8784 -0.72597,-4.02195 0.78625,-4.3602c-0.2836,-0.00567 -0.60456,-0.01475 -0.78101,-0.01901c-1.5634,-0.03782 -2.43694,-0.01171 -3.65676,-0.28748c-2.11767,-0.47875 -9.2644,-0.12606 -12.1364,-0.12949c-11.16081,-0.01333 -22.32161,-0.02666 -33.48245,-0.03999c0,0 -2.52697,-0.00302 -2.52602,-0.79923c0.00004,-0.03269 0.00431,-0.06401 0.01252,-0.09404c-1.20793,-0.08212 -2.42805,-0.19546 -3.66902,-0.39249zM359.72596,183.55097c6.73727,0.00805 15.34847,-0.35968 19.9475,1.26017c2.63546,0.92825 0.8939,3.8922 0.89242,5.1345c-0.00444,3.71571 -0.00887,7.4314 -0.01331,11.1471c-0.0005,0.42429 0.86735,2.53012 -0.00333,2.78678c-8.79438,2.59224 -25.36205,0.54285 -36.09812,1.29191c-13.32268,0.82359 -28.6623,-0.79447 -41.55195,0.37715c-11.73273,0.91011 -25.86633,0.99411 -37.96247,0.97966c-1.73506,-0.00207 -12.14083,0.39953 -13.26663,-0.01584c-3.22844,-1.19116 -2.52437,-2.18076 -2.52269,-3.58602c0.00303,-2.54178 -1.42335,-5.57333 0.771,-8.01403c2.45497,-2.31503 4.17745,-4.63781 8.09128,-6.89346c1.57879,-0.90989 3.28439,-2.12747 5.32426,-2.94854c1.33478,-0.53727 3.8861,-0.97203 4.20562,-1.67214c2.16408,-1.84145 6.07017,-1.23257 10.69336,-1.53698c8.22983,-0.54187 16.74528,-0.37811 25.27025,-0.36793c3.14396,0.00376 9.28743,-0.44482 11.50516,-0.30031c3.86057,0.25156 6.09762,1.29168 9.83925,1.6042c2.74555,0.22932 5.6393,0.09897 8.84374,0.60773c0.24328,0.03863 0.48651,0.07724 0.72979,0.11587c8.43499,0.01007 16.86998,0.02015 25.30499,0.03022z" data-paper-data="{&quot;index&quot;:null}" fill="#000000" stroke="none" stroke-width="0.5" stroke-linecap="butt"/><path d="M323.76326,184.17193c-0.00822,0.03005 -0.01219,0.06139 -0.01223,0.09406c-0.00095,0.79623 2.53843,0.80061 2.53843,0.80061c11.16081,0.01333 22.38109,0.04256 33.54196,0.05589c2.87199,0.00343 10.02519,-0.34554 12.14287,0.1332c1.21978,0.27577 2.09531,0.25099 3.65866,0.28879c0.17649,0.00428 0.49768,0.01353 0.78132,0.01923c-1.51222,0.33827 -0.77754,3.48941 -0.7786,4.36783c-0.00444,3.71571 -0.01417,7.45349 -0.0186,11.16919c-0.0008,0.66351 -0.00592,1.33027 -0.00671,1.99377c-0.00032,0.26542 0.44131,1.02338 -0.00285,0.79741c-1.6899,-0.85976 -4.9934,-0.40082 -8.84694,-0.40697c-7.59617,-0.01209 -15.75141,-0.26871 -23.21253,0.15297c-13.62464,0.84225 -28.40446,-0.53934 -41.92049,0.40105c-11.38369,0.88304 -25.06465,0.93365 -36.79201,0.91964c-2.94816,-0.00351 -5.90143,-0.00954 -8.84959,-0.01306c-0.44361,-0.00053 -1.14102,-0.0207 -1.86204,-0.04219c0.72588,-0.40758 -0.03713,-1.39906 -0.03647,-1.95397c0.00248,-2.07299 -2.21049,-5.66532 0.49917,-7.52456c2.39524,-2.25872 3.91652,-4.44949 7.82198,-6.70029c2.88158,-1.66075 7.38496,-3.14239 9.7695,-4.79263c1.15624,-0.98385 2.19729,-0.28148 5.9591,-0.50501c8.32391,-0.4946 16.7259,-0.38929 25.3244,-0.37902c3.13415,0.00374 7.10552,0.207 10.14313,0.01012c0.64115,-0.04157 1.85635,-0.19744 2.75969,-0.32522c-1.6525,0.40017 2.13159,0.79418 3.71524,1.04561c1.24103,0.19703 2.47586,0.31145 3.68377,0.39356z" data-paper-data="{&quot;noHover&quot;:false,&quot;origItem&quot;:[&quot;Path&quot;,{&quot;applyMatrix&quot;:true,&quot;segments&quot;:[[[579.60736,595.76373],[0.95609,-0.20262],[0.00646,0.07548]],[[579.61718,596],[0,-0.08208],[0,2]],[[577.61718,598],[0,0],[-8.83333,0]],[[551.11718,598],[8.83333,0],[-2.27308,0]],[[541.51161,598.28885],[1.67648,-1.19621],[-0.96568,0.68904]],[[538.61718,599],[1.23739,-0.09027],[-0.13966,0.01019]],[[537.99901,599.04541],[0.22447,-0.0134],[1.19653,0.85421]],[[538.61718,610],[0,-2.20646],[0,9.33333]],[[538.61718,638],[0,-9.33333],[0,1.66667]],[[538.61718,643],[0,-1.66667],[0,0.66667]],[[538.61718,645],[-0.35177,0.56631],[1.33831,-2.15456]],[[545.61718,644],[-3.04994,0.00386],[6.01206,-0.00761]],[[563.97058,644.43107],[-5.90478,-1.08158],[10.78253,2.15651]],[[597.04254,645.54479],[-10.6965,-2.40266],[9.00888,2.25222]],[[626.11718,648],[-9.28168,0],[2.33333,0]],[[633.11718,648],[-2.33333,0],[0.35109,0]],[[634.59021,647.90091],[-0.5707,0.05184],[-0.57412,-1.02596]],[[634.61718,643],[0,1.39387],[0,-5.20707]],[[634.21982,624.13246],[2.14282,4.67827],[-1.8936,-5.6808]],[[628.03948,607.31672],[3.08887,5.66543],[-2.2791,-4.1802]],[[620.32688,595.27881],[1.8857,4.15235],[-0.91417,-2.47477]],[[615.61718,594],[2.9771,0.57275],[-6.58756,-1.26734]],[[595.61718,593],[6.8054,0],[-2.48058,0]],[[587.61718,593],[2.40395,0.50364],[-0.50743,-0.10631]],[[585.44122,592.1748],[0.71481,0.32365],[1.30749,1.01011]],[[582.51161,594.78885],[1.25365,-0.62682],[-0.98239,0.4912]]],&quot;closed&quot;:true}],&quot;index&quot;:null}" fill="#c9c9c9" stroke="none" stroke-width="0.5" stroke-linecap="butt"/><path d="M288.33458,187.04872c-0.00032,0.2691 0.87044,0.59626 0.43599,0.80881c1.11053,0.03735 2.22759,0.11735 3.21978,0.27489c3.82555,0.60739 11.60661,2.81326 12.33881,4.26634c0.05954,0.11819 -1.02249,0.13665 -0.83937,0.2416c0.60929,0.34927 5.57883,-0.25052 6.15025,-0.15086c0.12932,0.02256 0.19283,0.05754 0.21822,0.10003c-0.02646,-0.13194 -0.05067,-0.2595 -0.05058,-0.33975c0.00034,-0.28204 0.03606,-0.58593 -0.36394,-0.83867c-3.40001,-2.22754 -8.9569,-4.3479 -18.58218,-4.35939c0,0 -1.13585,-0.00135 -1.88427,-0.24221c-0.24963,-0.045 -0.44371,-0.09777 -0.57381,-0.15957c-0.03364,0.15185 -0.06881,0.30643 -0.06893,0.39875zM309.80676,193.046c0.17226,0.16323 0.12171,-0.10741 0.06476,-0.39055c-0.01214,0.12283 -0.1825,0.27902 -0.06476,0.39055zM313.96496,190.70433c3.13978,1.98385 -3.9982,4.86841 -10.47708,3.52846c-6.1129,-1.26427 -8.18036,-3.79298 -13.75941,-4.67876c-1.8848,-0.29924 -4.1435,-0.46407 -5.55116,-0.95987c-2.23073,-0.78571 -1.23826,-3.45839 3.02943,-3.4533c3.07302,0.00367 4.58625,0.31953 7.44719,0.32294l1.26346,0.0015c0,0 1.45039,0.00173 2.15314,0.34881c7.48443,0.77884 12.28542,2.74064 15.89442,4.89022z" data-paper-data="{&quot;index&quot;:null}" fill="#000000" stroke="none" stroke-width="0.5" stroke-linecap="butt"/><path d="M288.30971,186.62315c0.13001,0.06179 0.32422,0.11455 0.57386,0.15957c0.74841,0.24085 1.88942,0.24051 1.88942,0.24051c9.62526,0.01149 15.38279,2.17884 18.78276,4.40639c0.40002,0.25274 0.35324,0.56218 0.35291,0.8442c-0.00009,0.08025 0.01944,0.20963 0.04589,0.34158c-0.02535,-0.04252 -0.08824,-0.07769 -0.21761,-0.10025c-0.57144,-0.09966 -5.58402,0.51054 -6.19332,0.16129c-0.18312,-0.10497 0.77898,-0.19348 0.71938,-0.31168c-0.73217,-1.45308 -8.5508,-3.64786 -12.37639,-4.25525c-0.99223,-0.15754 -2.1157,-0.2343 -3.22624,-0.27166c0.43446,-0.21257 -0.42594,-0.54462 -0.42561,-0.81372c0.0001,-0.09233 0.04113,-0.2491 0.07485,-0.40096z" data-paper-data="{&quot;noHover&quot;:false,&quot;origItem&quot;:[&quot;Path&quot;,{&quot;applyMatrix&quot;:true,&quot;segments&quot;:[[[607.563,601.99816],[0.02649,0.38155],[-0.10299,0.15484]],[[607.10872,602.39727],[0.1976,-0.11227],[-0.59254,0.60273]],[[605.61718,603],[0,0],[-7.618,0]],[[590.90604,613.89443],[2.69308,-5.58508],[-0.31682,0.63364]],[[590.61718,616],[0,-0.70843],[0,0.20156]],[[590.57685,616.85325],[0.02106,-0.33136],[0.02013,-0.10671]],[[590.74964,616.60263],[-0.10238,0.05628],[0.45234,-0.24865]],[[595.61718,617],[-0.48256,0.87548],[0.14503,-0.26312]],[[594.95308,616.3906],[-0.04725,0.29671],[0.58086,-3.64773]],[[604.72276,605.71115],[-3.02833,1.51416],[0.78545,-0.39273]],[[607.27135,605.03032],[-0.87898,0.0905],[-0.34365,-0.53523]],[[607.61718,603],[0,0.6759],[0,-0.23192]]],&quot;closed&quot;:true}],&quot;index&quot;:null}" fill="#ffffff" stroke="none" stroke-width="0.5" stroke-linecap="butt"/><path d="M307.3874,222.64263v-145.64565h333.15314v145.64565z" fill="#00ff3d" stroke="#000000" stroke-width="2" stroke-linecap="butt"/><path d="M-4.92492,224.14413v-145.64565h321.32132v145.64565z" fill="#00ff3d" stroke="#000000" stroke-width="2" stroke-linecap="butt"/><path d="M317.89791,368.28828v-145.64565h321.32132v145.64565z" fill="#00ff3d" stroke="#000000" stroke-width="2" stroke-linecap="butt"/><path d="M-3.42341,366.78678v-145.64565h321.32132v145.64565z" fill="#00ff3d" stroke="#000000" stroke-width="2" stroke-linecap="butt"/></g></g></svg>