<svg version="1.1" xmlns="http://www.w3.org/2000/svg" xmlns:xlink="http://www.w3.org/1999/xlink" width="618.29166" height="216.14999" viewBox="0,0,618.29166,216.14999"><g transform="translate(-9.92503,-140.32503)"><g data-paper-data="{&quot;isPaintingLayer&quot;:true}" fill-rule="nonzero" stroke-linecap="butt" stroke-linejoin="miter" stroke-miterlimit="10" stroke-dasharray="" stroke-dashoffset="0" style="mix-blend-mode: normal"><path d="M199.55003,224.10003v-83.27499h216v83.27499z" fill="#ffffff" stroke="#000000" stroke-width="1"/><path d="M264.27745,145.875c4.95098,0 4.95098,2.5 4.95098,2.5c0,1.4916 0,2.98667 0,4.48471c9.01741,0.55244 17.8412,2.16625 23.54043,4.06017c0,0 4.11947,1.38675 1.37317,3.46688c-2.7463,2.08013 -6.86577,0.69338 -6.86577,0.69338c-4.93396,-1.6878 -11.48636,-2.78402 -18.0478,-3.15802c0,6.40335 0,12.84974 0,19.29917c3.64801,0.94245 7.32517,1.64534 10.70207,2.06102c2.21697,0.99479 4.89972,1.77571 6.65089,2.98437c5.72977,3.95468 4.02378,8.0313 2.36314,12.45211c-0.57173,1.52202 -1.94533,6.26655 -3.88414,7.0721c-3.05048,1.26743 -7.5545,1.1745 -11.38627,1.65966c-1.539,0.19486 -3.01747,0.34544 -4.4457,0.45186c0,1.70318 0,3.40264 0,5.09761c0,0 0,2.5 -4.95098,2.5c-4.95098,0 -4.95098,-2.5 -4.95098,-2.5c0,-1.70756 0,-3.41512 0,-5.12267c-5.13824,-0.46684 -9.8579,-1.68376 -14.8903,-3.64161c-1.07659,-0.05812 -2.04994,-0.2905 -2.80735,-0.64017c-1.12056,-0.47891 -2.30383,-1.34039 -1.33019,-2.67783c0.04442,-0.06354 0.09378,-0.1259 0.14782,-0.18696c1.12089,-1.31151 3.15741,-1.52373 4.62457,-1.48022c0.78761,0.00807 1.53008,0.10901 2.18618,0.28202l3.22652,0.74407c3.32337,1.31785 6.0346,2.04387 8.84276,2.38586c0,-6.15801 0,-12.31602 0,-18.47402c-7.45618,-2.54154 -13.70303,-6.0771 -18.16547,-9.9517c-4.07664,-3.53963 -6.72329,-7.1156 -3.11542,-11.08514c3.8504,-4.23638 12.07653,-6.07822 21.28089,-6.43114c0,-1.24016 0,-2.48032 0,-3.72048v-0.625c0,0 0,-2.5 4.95098,-2.5zM271.71412,198.54949c2.13671,-0.15082 4.61106,0.23974 6.43727,-0.34034c0.97055,-0.30828 -0.03836,-1.16145 0.1001,-1.73619c0.2181,-0.9052 0.62736,-1.79609 0.96672,-2.69171c1.62131,-4.27872 2.77761,-6.9698 -3.85852,-10.06352c-2.09354,-0.22852 -4.1399,-0.53769 -6.13126,-0.91868c0,5.31874 0,10.63169 0,15.9164c0.78989,-0.04865 1.6163,-0.1046 2.48567,-0.16596zM256.48623,158.18514c-4.07279,0.45601 -10.95036,2.08691 -10.52749,4.79981c0.66333,4.25544 6.22719,8.08147 13.36774,10.99728c0,-5.34898 0,-10.69796 0,-16.04695c-0.96919,0.06349 -1.91805,0.1466 -2.84025,0.24986z" fill="#000000" stroke="none" stroke-width="0.5"/><path d="M428.55004,345.97502v-194.875h199.16666v194.875z" fill="#00feff" stroke="#000000" stroke-width="1"/><path d="M10.42503,355.97502v-128.87501h409.5v128.87501z" fill="#d700ff" stroke="#000000" stroke-width="1"/></g></g></svg>